<svg xmlns="http://www.w3.org/2000/svg" viewBox="0 0 1080 1080">
  <defs>
    <linearGradient id="degla-bg" x1="0" y1="0" x2="1" y2="1">
      <stop offset="0" stop-color="#1B1D21"/>
      <stop offset="0.52" stop-color="#3A3E45"/>
      <stop offset="1" stop-color="#717C88"/>
    </linearGradient>
  </defs>
  <rect width="1080" height="1080" rx="232" fill="url(#degla-bg)"/>
  <g transform="translate(540 540) scale(1.6) translate(-240 -121)" fill="#FFFFFF">
    <path d="M232 79 C 162 50 74 45 24 50 C 70 63 150 79 226 89 Z"/>
    <path d="M248 79 C 318 50 406 45 456 50 C 410 63 330 79 254 89 Z"/>
    <path d="M229 92 C 176 84 116 85 72 92 C 120 100 180 101 227 99 Z"/>
    <path d="M251 92 C 304 84 364 85 408 92 C 360 100 300 101 253 99 Z"/>
    <path d="M214 88 L230 71 L250 71 L266 88 L250 105 L230 105 Z"/>
    <path d="M235 104 L245 104 L245 113 L235 113 Z"/>
    <path fill-rule="evenodd" d="M240 111 L277 151 L240 197 L203 151 Z M240 129 L262 151 L240 179 L218 151 Z"/>
    <path d="M221 143 L240 169 L259 143 L251 143 L240 158 L229 143 Z"/>
  </g>
</svg>
